<svg xmlns="http://www.w3.org/2000/svg" xmlns:xlink="http://www.w3.org/1999/xlink" width="829.99" height="416.263" viewBox="0 0 829.99 416.263">
  <defs>
    <linearGradient id="linear-gradient" x1="2024.027" y1="1" x2="2024.027" gradientUnits="objectBoundingBox">
      <stop offset="0" stop-color="gray" stop-opacity="0.251"/>
      <stop offset="0.54" stop-color="gray" stop-opacity="0.122"/>
      <stop offset="1" stop-color="gray" stop-opacity="0.102"/>
    </linearGradient>
  </defs>
  <g id="Groupe_26" data-name="Groupe 26" transform="translate(-2541.905 -3249.533)">
    <path id="Tracé_252" data-name="Tracé 252" d="M993.9,76.97V464.96l-20-13V76.97h-12l-5,361.99-19-14,13-352.99" transform="translate(2334.005 3182.563)" fill="none" stroke="#fff" stroke-miterlimit="10" stroke-width="1"/>
    <line id="Ligne_143" data-name="Ligne 143" x1="81" y2="4.5" transform="translate(3271.915 3287.533)" fill="none" stroke="#fff" stroke-miterlimit="10" stroke-width="1"/>
    <line id="Ligne_144" data-name="Ligne 144" x1="76" y2="3" transform="translate(3271.915 3307.533)" fill="none" stroke="#fff" stroke-miterlimit="10" stroke-width="1"/>
    <line id="Ligne_145" data-name="Ligne 145" x1="76" y2="2" transform="translate(3271.915 3331.533)" fill="none" stroke="#fff" stroke-miterlimit="10" stroke-width="1"/>
    <line id="Ligne_146" data-name="Ligne 146" x1="76" y2="3" transform="translate(3271.915 3353.533)" fill="none" stroke="#fff" stroke-miterlimit="10" stroke-width="1"/>
    <line id="Ligne_147" data-name="Ligne 147" x1="79" transform="translate(3268.915 3378.533)" fill="none" stroke="#fff" stroke-miterlimit="10" stroke-width="1"/>
    <line id="Ligne_148" data-name="Ligne 148" x1="81" y1="3" transform="translate(3266.915 3400.533)" fill="none" stroke="#fff" stroke-miterlimit="10" stroke-width="1"/>
    <line id="Ligne_149" data-name="Ligne 149" x1="81" y1="4" transform="translate(3266.915 3422.533)" fill="none" stroke="#fff" stroke-miterlimit="10" stroke-width="1"/>
    <line id="Ligne_150" data-name="Ligne 150" x1="81" y1="6" transform="translate(3266.915 3445.533)" fill="none" stroke="#fff" stroke-miterlimit="10" stroke-width="1"/>
    <line id="Ligne_151" data-name="Ligne 151" x1="86" y1="8" transform="translate(3263.915 3465.533)" fill="none" stroke="#fff" stroke-miterlimit="10" stroke-width="1"/>
    <line id="Ligne_152" data-name="Ligne 152" x1="86" y1="13" transform="translate(3263.915 3485.533)" fill="none" stroke="#fff" stroke-miterlimit="10" stroke-width="1"/>
    <line id="Ligne_153" data-name="Ligne 153" x1="89" y1="16" transform="translate(3260.915 3511.533)" fill="none" stroke="#fff" stroke-miterlimit="10" stroke-width="1"/>
    <line id="Ligne_154" data-name="Ligne 154" x1="89" y1="26" transform="translate(3260.915 3534.533)" fill="none" stroke="#fff" stroke-miterlimit="10" stroke-width="1"/>
    <line id="Ligne_155" data-name="Ligne 155" x1="94" y1="37" transform="translate(3257.915 3557.533)" fill="none" stroke="#fff" stroke-miterlimit="10" stroke-width="1"/>
    <line id="Ligne_156" data-name="Ligne 156" x1="94" y1="46" transform="translate(3257.915 3579.533)" fill="none" stroke="#fff" stroke-miterlimit="10" stroke-width="1"/>
    <path id="Tracé_253" data-name="Tracé 253" d="M915.9,75.97l-16,340.99h-21l13-340.99h-23l-15,340.99h-23l13-340.99h-28l-10,340.99h-25l11-337.99h-26l-6,337.99h-23l7-340.99h-23l-5,340.99h-22l5-340.99h-26V416.96h-26V75.97h-24l4,340.99h-21l-6-340.99h-24l8,340.99h-21l-10-340.99h-21l8,340.99h-19l-15-340.99h-20l16,340.99h-20l-22-340.99h-24l28,340.99h-19l-27-340.99h-19l28,340.99h-21l-27-344.99h-19l31,344.99h-20l-32-344.99" transform="translate(2334.005 3182.563)" fill="none" stroke="#fff" stroke-miterlimit="10" stroke-width="1"/>
    <path id="Tracé_254" data-name="Tracé 254" d="M293.9,76.97l30,345.99-15,12-23-357.99h-16l16,370.99-23,15L253.91,71.97" transform="translate(2334.005 3182.563)" fill="none" stroke="#fff" stroke-miterlimit="10" stroke-width="1"/>
    <line id="Ligne_157" data-name="Ligne 157" x2="92" transform="translate(2565.915 3298.533)" fill="none" stroke="#fff" stroke-miterlimit="10" stroke-width="1"/>
    <line id="Ligne_158" data-name="Ligne 158" x2="92" transform="translate(2565.915 3323.533)" fill="none" stroke="#fff" stroke-miterlimit="10" stroke-width="1"/>
    <line id="Ligne_159" data-name="Ligne 159" y1="3" x2="92" transform="translate(2565.915 3348.533)" fill="none" stroke="#fff" stroke-miterlimit="10" stroke-width="1"/>
    <line id="Ligne_160" data-name="Ligne 160" y1="5" x2="96" transform="translate(2565.915 3370.533)" fill="none" stroke="#fff" stroke-miterlimit="10" stroke-width="1"/>
    <line id="Ligne_161" data-name="Ligne 161" y1="4" x2="96" transform="translate(2565.915 3398.533)" fill="none" stroke="#fff" stroke-miterlimit="10" stroke-width="1"/>
    <line id="Ligne_162" data-name="Ligne 162" y1="5" x2="100" transform="translate(2565.915 3426.533)" fill="none" stroke="#fff" stroke-miterlimit="10" stroke-width="1"/>
    <line id="Ligne_163" data-name="Ligne 163" y1="10" x2="100" transform="translate(2565.915 3449.533)" fill="none" stroke="#fff" stroke-miterlimit="10" stroke-width="1"/>
    <line id="Ligne_164" data-name="Ligne 164" y1="24" x2="100" transform="translate(2565.915 3467.533)" fill="none" stroke="#fff" stroke-miterlimit="10" stroke-width="1"/>
    <line id="Ligne_165" data-name="Ligne 165" y1="35" x2="104" transform="translate(2565.915 3484.533)" fill="none" stroke="#fff" stroke-miterlimit="10" stroke-width="1"/>
    <line id="Ligne_166" data-name="Ligne 166" y1="40" x2="104" transform="translate(2565.915 3508.533)" fill="none" stroke="#fff" stroke-miterlimit="10" stroke-width="1"/>
    <line id="Ligne_167" data-name="Ligne 167" y1="43.45" x2="103.53" transform="translate(2562.915 3533.083)" fill="none" stroke="#fff" stroke-miterlimit="10" stroke-width="1"/>
    <line id="Ligne_168" data-name="Ligne 168" y1="54" x2="107" transform="translate(2562.915 3554.533)" fill="none" stroke="#fff" stroke-miterlimit="10" stroke-width="1"/>
    <line id="Ligne_169" data-name="Ligne 169" y1="61" x2="110" transform="translate(2562.915 3576.533)" fill="none" stroke="#fff" stroke-miterlimit="10" stroke-width="1"/>
    <line id="Ligne_170" data-name="Ligne 170" x1="614" y2="5" transform="translate(2657.915 3287.533)" fill="none" stroke="#fff" stroke-miterlimit="10" stroke-width="1"/>
    <line id="Ligne_171" data-name="Ligne 171" x1="614" y2="5" transform="translate(2657.415 3305.533)" fill="none" stroke="#fff" stroke-miterlimit="10" stroke-width="1"/>
    <line id="Ligne_172" data-name="Ligne 172" x1="614" y2="5" transform="translate(2656.915 3323.533)" fill="none" stroke="#fff" stroke-miterlimit="10" stroke-width="1"/>
    <line id="Ligne_173" data-name="Ligne 173" x1="614" y2="5" transform="translate(2656.415 3341.533)" fill="none" stroke="#fff" stroke-miterlimit="10" stroke-width="1"/>
    <line id="Ligne_174" data-name="Ligne 174" x1="614" y2="5" transform="translate(2655.915 3359.533)" fill="none" stroke="#fff" stroke-miterlimit="10" stroke-width="1"/>
    <line id="Ligne_175" data-name="Ligne 175" x1="606" y2="5" transform="translate(2663.415 3377.533)" fill="none" stroke="#fff" stroke-miterlimit="10" stroke-width="1"/>
    <line id="Ligne_176" data-name="Ligne 176" x1="606" y2="5" transform="translate(2662.915 3395.533)" fill="none" stroke="#fff" stroke-miterlimit="10" stroke-width="1"/>
    <line id="Ligne_177" data-name="Ligne 177" x1="606" y2="5" transform="translate(2662.415 3413.533)" fill="none" stroke="#fff" stroke-miterlimit="10" stroke-width="1"/>
    <line id="Ligne_178" data-name="Ligne 178" x1="606" y2="5" transform="translate(2661.915 3431.533)" fill="none" stroke="#fff" stroke-miterlimit="10" stroke-width="1"/>
    <line id="Ligne_179" data-name="Ligne 179" x1="600" y2="5" transform="translate(2667.415 3449.533)" fill="none" stroke="#fff" stroke-miterlimit="10" stroke-width="1"/>
    <line id="Ligne_180" data-name="Ligne 180" x1="600" y2="5" transform="translate(2666.915 3467.533)" fill="none" stroke="#fff" stroke-miterlimit="10" stroke-width="1"/>
    <line id="Ligne_181" data-name="Ligne 181" x1="600" y2="5" transform="translate(2666.415 3485.533)" fill="none" stroke="#fff" stroke-miterlimit="10" stroke-width="1"/>
    <line id="Ligne_182" data-name="Ligne 182" x1="596" y2="5" transform="translate(2669.915 3503.533)" fill="none" stroke="#fff" stroke-miterlimit="10" stroke-width="1"/>
    <line id="Ligne_183" data-name="Ligne 183" x1="596" y2="5" transform="translate(2669.415 3521.533)" fill="none" stroke="#fff" stroke-miterlimit="10" stroke-width="1"/>
    <line id="Ligne_184" data-name="Ligne 184" x1="593" y2="5" transform="translate(2671.915 3539.533)" fill="none" stroke="#fff" stroke-miterlimit="10" stroke-width="1"/>
    <line id="Ligne_185" data-name="Ligne 185" x1="593" y2="5" transform="translate(2671.415 3557.533)" fill="none" stroke="#fff" stroke-miterlimit="10" stroke-width="1"/>
    <line id="Ligne_186" data-name="Ligne 186" x1="593" y2="5" transform="translate(2670.915 3575.533)" fill="none" stroke="#fff" stroke-miterlimit="10" stroke-width="1"/>
    <path id="Tracé_255" data-name="Tracé 255" d="M1017.9,481.96l-91-65h-591l-103.99,65" transform="translate(2334.005 3182.563)" fill="none" stroke="#fff" stroke-miterlimit="10" stroke-width="3"/>
    <path id="Tracé_256" data-name="Tracé 256" d="M245.2,158.35c.49-19.35,13.89-36.35,32.8-40.5l.54-.11a11.42,11.42,0,0,1,2.32-.22h748.4a32,32,0,0,1,27.57,15.32l.19.33a13.12,13.12,0,0,1,1.72,6.33l6.95,393h-24l-8-384s0-11-10-12c-1.53-.15-20.09-.26-50.41-.33L955.7,468.51h-10l19.55-332.35c-133.3-.26-459.57.07-611,.25l19.42,330.1h-10L346.23,136.42l-57.64.07a24.21,24.21,0,0,0-20.89,12l-8,384h-24Z" transform="translate(2306.205 3132.013)" fill="#e0e0e0"/>
    <g id="Groupe_25" data-name="Groupe 25" transform="translate(2334.005 3182.563)" opacity="0.1">
      <path id="Tracé_194" data-name="Tracé 194" d="M410,337.35a2.542,2.542,0,0,1-.18-.25Z" transform="translate(-27.8 -50.55)" fill="url(#linear-gradient)"/>
    </g>
    <path id="Tracé_257" data-name="Tracé 257" d="M674.59,365.33l.17.23Z" transform="translate(2306.205 3132.013)" fill="#d39999"/>
    <path id="Tracé_258" data-name="Tracé 258" d="M245.2,158.35c.49-19.35,13.89-36.35,32.8-40.5l.54-.11a11.42,11.42,0,0,1,2.32-.22h748.4a32,32,0,0,1,27.57,15.32l.19.33a13.12,13.12,0,0,1,1.72,6.33l6.95,393h-24l-8-384s0-11-10-12c-1.53-.15-20.09-.26-50.41-.33L955.7,468.51h-10l19.55-332.35c-133.3-.26-459.57.07-611,.25l19.42,330.1h-10L346.23,136.42l-57.64.07a24.21,24.21,0,0,0-20.89,12l-8,384h-24Z" transform="translate(2306.205 3132.014)" fill="#fff"/>
  </g>
</svg>
