<svg xmlns="http://www.w3.org/2000/svg" width="428.165" height="518" viewBox="0 0 428.165 518">
  <g id="Groupe_63" data-name="Groupe 63" transform="translate(-135.736 -154.279)" opacity="0.103">
    <g id="Groupe_33" data-name="Groupe 33" transform="translate(247.617 154.279)">
      <path id="Tracé_290" data-name="Tracé 290" d="M592.842,700.668c5.115-6.459,11.86,6.389,18.607,1.64H574.061C581.672,706.533,587.612,693.764,592.842,700.668Z" transform="translate(-399.484 -191.46)" fill="none"/>
      <path id="Tracé_291" data-name="Tracé 291" d="M662.985,700.852h-6.445c1.385.973,2.774,1.941,4.1,2.992C661.391,702.824,662.2,701.845,662.985,700.852Z" transform="translate(-346.701 -190.005)" fill="none"/>
      <path id="Tracé_292" data-name="Tracé 292" d="M567.521,696.125a61.7,61.7,0,0,0-30,7.752h59.923A61.428,61.428,0,0,0,567.521,696.125Z" transform="translate(-422.868 -193.03)" fill="#e6e6e6"/>
      <path id="Tracé_293" data-name="Tracé 293" d="M645.829,691.4a84.772,84.772,0,0,0-48.97,15.5h97.873A84.752,84.752,0,0,0,645.829,691.4Z" transform="translate(-384.894 -196.055)" fill="#e6e6e6"/>
      <path id="Tracé_297" data-name="Tracé 297" d="M531.993,450.352s-49.2,34.439-45.919,65.6,24.6,116.437,24.6,116.437l44.279-6.56s4.92-65.6-11.48-90.2l78.718-44.279Z" transform="translate(-455.892 -350.314)" fill="#9d616a"/>
      <path id="Tracé_298" data-name="Tracé 298" d="M580.766,499.852s-3.28,60.678,4.92,85.278,16.4,116.437,16.4,116.437H648s21.32-80.358-4.92-116.437c0,0-8.2-47.559,14.76-70.518Z" transform="translate(-395.608 -318.636)" fill="#9d616a"/>
      <path id="Tracé_299" data-name="Tracé 299" d="M614.215,389.352s-105.2,80.358-105.2,101.677l85.278,70.518,29.52-32.8-3.28,49.2,91.838,18.04s32.8-124.637,31.159-129.557-6.56-77.078-6.56-77.078Z" transform="translate(-441.112 -389.352)" fill="#2f2e41"/>
      <path id="Tracé_300" data-name="Tracé 300" d="M546.572,552.352l-47.559,9.84,8.45,34.738a124.049,124.049,0,0,1,1.39,52.18h0s49.2,13.119,49.2,6.56-11.48-32.8-8.2-50.839S546.572,552.352,546.572,552.352Z" transform="translate(-447.511 -285.039)" fill="#6c63ff"/>
      <path id="Tracé_301" data-name="Tracé 301" d="M591.269,640.222c-1.64-6.56-15.265-36.3-15.833-31.271s-26.806,13.231-36.646,3.391c0,0-13.12-11.479-18.04,0s-14.76,31.159-14.76,31.159-44.279,21.32-37.719,32.8c1.327,2.322,5,3.3,10.021,3.387a2.682,2.682,0,0,0-.182.951V681.8a2.7,2.7,0,0,0,2.7,2.7h1.162a2.7,2.7,0,0,0,2.7-2.7V680.64a2.67,2.67,0,0,0-.295-1.2c1.341-.118,2.733-.273,4.163-.461a2.675,2.675,0,0,0-.589,1.664V681.8a2.7,2.7,0,0,0,2.7,2.7h1.162a2.7,2.7,0,0,0,2.7-2.7V680.64a2.687,2.687,0,0,0-1.4-2.349c3.775-.63,7.714-1.431,11.632-2.32a2.675,2.675,0,0,0-.4,1.39v1.162a2.7,2.7,0,0,0,2.7,2.7h1.162a2.7,2.7,0,0,0,2.7-2.7V677.36a2.7,2.7,0,0,0-1.6-2.463c2.938-.716,5.818-1.463,8.559-2.2a2.672,2.672,0,0,0-.394,1.386v1.162a2.7,2.7,0,0,0,2.7,2.7h1.162a2.7,2.7,0,0,0,2.7-2.7V674.08a2.689,2.689,0,0,0-1.9-2.564c9.631-2.713,16.657-5.055,16.657-5.055s8.16-2.969,18.039-6.98v1a2.7,2.7,0,0,0,2.7,2.7h1.162a2.7,2.7,0,0,0,2.7-2.7V659.32a2.684,2.684,0,0,0-1.044-2.117c1.984-.833,3.985-1.691,5.964-2.563v.923a2.7,2.7,0,0,0,2.7,2.7h1.162a2.7,2.7,0,0,0,2.7-2.7V654.4a2.692,2.692,0,0,0-1.155-2.209c2.14-1,4.2-2,6.1-2.973a2.628,2.628,0,0,0-.026.262v1.162a2.7,2.7,0,0,0,2.7,2.7h1.162a2.7,2.7,0,0,0,2.7-2.7V649.48a2.7,2.7,0,0,0-2.16-2.644C588.774,644.173,591.666,641.811,591.269,640.222Z" transform="translate(-467.609 -249.912)" fill="#2f2e41"/>
      <path id="Tracé_302" data-name="Tracé 302" d="M646.551,619.632l-51.954-3.28s3.149,54.119-3.149,72.158-3.149,24.6-3.149,24.6l45.656,3.28Z" transform="translate(-390.875 -244.081)" fill="#6c63ff"/>
      <path id="Tracé_303" data-name="Tracé 303" d="M673.874,709.119c-.236-6.757-7.361-38.687-8.964-33.884s-28.976,7.351-36.548-4.324c0,0-10.437-13.963-17.643-3.762s-20.932,27.4-20.932,27.4-47.751,11.618-43.729,24.214c.814,2.547,4.2,4.271,9.095,5.4a2.667,2.667,0,0,0-.376.892l-.242,1.137a2.7,2.7,0,0,0,2.077,3.2l1.136.243a2.7,2.7,0,0,0,3.2-2.077l.242-1.137a2.673,2.673,0,0,0-.038-1.238c1.336.165,2.73.3,4.168.417a2.673,2.673,0,0,0-.922,1.5l-.243,1.137a2.7,2.7,0,0,0,2.077,3.2l1.136.242a2.7,2.7,0,0,0,3.2-2.077l.242-1.136a2.686,2.686,0,0,0-.875-2.589c3.823.17,7.843.208,11.859.157a2.672,2.672,0,0,0-.677,1.276l-.243,1.136a2.7,2.7,0,0,0,2.077,3.2l1.137.243a2.7,2.7,0,0,0,3.2-2.077l.243-1.137a2.7,2.7,0,0,0-1.056-2.743c3.023-.088,5.995-.218,8.83-.37a2.675,2.675,0,0,0-.675,1.273l-.242,1.137a2.7,2.7,0,0,0,2.077,3.2l1.137.243a2.7,2.7,0,0,0,3.2-2.076l.242-1.137a2.689,2.689,0,0,0-1.322-2.9c9.985-.645,17.345-1.47,17.345-1.47s8.6-1.2,19.1-3.066l-.209.979a2.7,2.7,0,0,0,2.077,3.2l1.136.242a2.7,2.7,0,0,0,3.2-2.077l.242-1.137a2.682,2.682,0,0,0-.579-2.288c2.114-.4,4.25-.824,6.367-1.263l-.193.9a2.7,2.7,0,0,0,2.077,3.2l1.137.242a2.7,2.7,0,0,0,3.2-2.077l.242-1.136a2.691,2.691,0,0,0-.669-2.4c2.3-.53,4.525-1.076,6.587-1.635-.026.083-.062.162-.08.25l-.243,1.137a2.7,2.7,0,0,0,2.077,3.2l1.137.242a2.7,2.7,0,0,0,3.2-2.077l.243-1.137a2.7,2.7,0,0,0-1.561-3.036C670.611,712.464,673.931,710.756,673.874,709.119Z" transform="translate(-417.558 -213.959)" fill="#2f2e41"/>
      <path id="Tracé_307" data-name="Tracé 307" d="M592.513,497.016s22.959-21.32,36.079-9.84,21.319,19.68,21.319,19.68S612.193,483.9,592.513,497.016Z" transform="translate(-387.675 -328.92)" fill="#6c63ff"/>
      <path id="Tracé_308" data-name="Tracé 308" d="M596.149,650.311s12.941-12.016,20.335-5.546S628.5,655.857,628.5,655.857,607.242,642.916,596.149,650.311Z" transform="translate(-385.348 -227.122)" fill="#2f2e41"/>
      <path id="Tracé_309" data-name="Tracé 309" d="M507.746,583.891s8.883-15.262,17.841-11.224,14.724,7.115,14.724,7.115S516.206,573.588,507.746,583.891Z" transform="translate(-441.923 -272.473)" fill="#2f2e41"/>
    </g>
    <g id="Groupe_39" data-name="Groupe 39" transform="translate(135.736 411.608)">
      <g id="Groupe_17" data-name="Groupe 17" transform="translate(0 0.03)">
        <path id="Tracé_242" data-name="Tracé 242" d="M114.36,570.249a64.618,64.618,0,1,0,13.414-39.432A64.614,64.614,0,0,0,114.36,570.249Z" transform="translate(-114.36 -505.61)" fill="#e0e0e0"/>
        <line id="Ligne_134" data-name="Ligne 134" y2="25.058" transform="translate(28.406 32.884)" fill="none" stroke="#535461" stroke-miterlimit="10" stroke-width="1"/>
        <line id="Ligne_135" data-name="Ligne 135" x1="26.167" y2="17.274" transform="translate(50.138 55.724)" fill="none" stroke="#535461" stroke-miterlimit="10" stroke-width="1"/>
        <line id="Ligne_136" data-name="Ligne 136" x2="30.624" y2="12.817" transform="translate(50.138 17.295)" fill="none" stroke="#535461" stroke-miterlimit="10" stroke-width="1"/>
        <line id="Ligne_137" data-name="Ligne 137" x1="1.663" y2="38.984" transform="translate(99.7 60.182)" fill="none" stroke="#535461" stroke-miterlimit="10" stroke-width="1"/>
        <line id="Ligne_138" data-name="Ligne 138" x1="34.527" y1="17.274" transform="translate(46.235 93.6)" fill="none" stroke="#535461" stroke-miterlimit="10" stroke-width="1"/>
        <line id="Ligne_139" data-name="Ligne 139" y2="21.774" transform="translate(28.406 96.393)" fill="none" stroke="#535461" stroke-miterlimit="10" stroke-width="1"/>
        <line id="Ligne_140" data-name="Ligne 140" x1="15.056" y1="6.675" transform="translate(0.533 72.999)" fill="none" stroke="#535461" stroke-miterlimit="10" stroke-width="1"/>
        <line id="Ligne_141" data-name="Ligne 141" x1="1.152" y1="18.213" transform="translate(98.548 9.66)" fill="none" stroke="#535461" stroke-miterlimit="10" stroke-width="1"/>
        <line id="Ligne_142" data-name="Ligne 142" x2="18.682" y2="5.332" transform="translate(109.723 49.049)" fill="none" stroke="#535461" stroke-miterlimit="10" stroke-width="1"/>
        <path id="Tracé_243" data-name="Tracé 243" d="M160.77,491.379l-14.48-25.08-23.949,3.9v27.852l25.634,13.371Z" transform="translate(-46.035 -442.33)" fill="#6c63ff"/>
        <path id="Tracé_244" data-name="Tracé 244" d="M120.65,530.1l14.928,7.677c5.012-6.675,25.591-14.48,25.591-14.48l-2.133-17.061A64.534,64.534,0,0,0,120.65,530.1Z" transform="translate(-107.236 -504.897)" fill="#6c63ff"/>
        <path id="Tracé_245" data-name="Tracé 245" d="M133.478,494.493,107.31,482.23,92.83,502.852,107.865,526.8l25.613-3.9Z" transform="translate(-79.459 -424.288)" fill="#6c63ff"/>
        <path id="Tracé_246" data-name="Tracé 246" d="M150.14,563.373v20.665a64.6,64.6,0,0,0,41.65-27.063l-18.255-7.485Z" transform="translate(-73.835 -455.912)" fill="#6c63ff"/>
      </g>
      <ellipse id="Ellipse_5" data-name="Ellipse 5" cx="64.631" cy="64.631" rx="64.631" ry="64.631" transform="translate(0.004 0)" fill="rgba(1,30,160,0.36)"/>
    </g>
  </g>
</svg>
