<?xml version="1.0" encoding="utf-8"?>
<!-- Generator: Adobe Illustrator 24.3.0, SVG Export Plug-In . SVG Version: 6.00 Build 0)  -->
<svg version="1.1" id="Calque_1" xmlns="http://www.w3.org/2000/svg" xmlns:xlink="http://www.w3.org/1999/xlink" x="0px" y="0px"
	 viewBox="0 0 294.6 244.5" style="enable-background:new 0 0 294.6 244.5;" xml:space="preserve">
<style type="text/css">
	.st0{fill:#283B99;}
	.st1{fill:#A7CEF5;stroke:#A7CEF5;stroke-miterlimit:10;}
	.st2{display:none;}
	.st3{display:inline;fill:#2F4151;}
</style>
<g id="pEAZEm.tif">
	<g>
		<path class="st0" d="M225.7,75.3c9.2-1.2,18.4-1.8,27.4,0.8c10.8,3.2,13.9,11.2,8,20.9c-4.3,7.2-10.2,13.1-16.7,18.3
			c-19.8,16.2-42,28.3-65.1,38.9c-24.2,11-49.1,19.9-75,26.1c-13,3.1-26.1,5.3-39.5,5.6c-7.6,0.1-15.2-0.2-22.2-3.9
			c-6-3.1-8.2-8.3-5.8-14.7c3.3-8.7,9.8-15,16.5-21c3.1-2.8,6.3-5.5,10.2-7.3c-1.6,2.2-3.2,4.4-4.7,6.6c-1.4,2.1-2.6,4.4-2.8,7.1
			c-0.4,3.9,1.1,6.8,4.6,8.7c3.7,1.9,7.7,2.6,11.8,2.9c15.4,0.8,30.2-2.3,45-5.9c1.8-0.5,3.6-1.2,5.4-1.4c3.9-0.5,5.3,2.9,5.2-6.5
			c0.2-17.2-3.5-33.4-11.6-48.6c-0.8-1.5-1.9-2.6-3.5-3.3C103,93.7,93.6,87.5,85.3,79.9C70.9,66.6,61.7,46.4,61.7,26.3
			c0-7.3,1.6-14.4,5.5-21.7c0,4.8-0.1,8.7,0,12.7c0.1,2.7,1.4,10.5,1.9,12.2c3.7,12.9,11.7,27,22,35.1c17.4,13.6,37.6,21.5,58.5,28
			c6.2,1.9,12.4,3.2,18.8,4c2.3,0.3,4.7,0.4,7,0.2c10.6-0.8,15.9-6.6,16.8-17.5c0.9-11-1-21.6-3.2-32.3c-0.2-1-0.4-2-0.3-3.1
			c5.2,7.4,8.8,15.5,11.3,24.1c1.9,6.5,2.7,13.1,1.9,19.8c-1.6,13.7-10.8,22.8-25.2,25.2c-6.4,1-6.3,1-7.1,7.4
			c-0.7,5.8-0.9,11.6-2.3,17.4c-0.2,0.8-0.8,4.8-0.1,5.4c0.8,0.7,1.8-3.1,2.5-3.4c20.3-9.2,39.8-19.6,56.8-34.2
			c5.1-4.4,9.8-9.1,12.3-15.5c2.4-6.1,0.2-10.6-6-12.7C230.4,76.5,228,76,225.7,75.3z"/>
		<path class="st0" d="M262.3,107.1c-1.2,5-4.4,8.9-7.8,12.5c-11.8,12.6-26,22-40.8,30.6c-19.3,11.3-39.5,20.8-60.5,28.5
			c-2.5,0.9-4.5,2.2-6,4.5c-15.5,22.3-35.8,39.2-59.2,52.6c-1.3,0.8-2.7,1.5-4,2.2c-0.1,0-0.2,0-1.1,0.1c3.3-3.6,6.2-6.9,9.2-10.1
			c9.2-9.7,16.9-20.5,23.3-32.3c0.3-0.5,0.5-1,0.7-1.6c0.2-0.9,1.1-1.8,0.5-2.6c-0.7-0.9-1.8-0.1-2.6,0.1
			c-12.8,3.3-25.7,6.3-38.9,7.3c-10.3,0.8-20.8,1.8-30.8-2.2c-3.1-1.2-5.8-2.8-7.2-6.7c4.5,1,8.5,2,12.7,2.4
			c11.1,1.2,21.9-0.3,32.8-2c23.1-3.6,45.3-10.2,67.2-18.4c28.6-10.7,56.3-23.5,81.9-40.4C242.7,124.5,253.1,116.6,262.3,107.1z"/>
		<path class="st0" d="M147.8,47.1c9.3-0.1,16.5,7.2,16.6,16.7c0.1,9.2-7.4,16.5-16.8,16.5c-9.1,0-16.4-7.3-16.4-16.5
			C131,54.5,138.3,47.2,147.8,47.1z"/>
	</g>
</g>
<g id="boZglC.tif">
	
		<image style="overflow:visible;" width="752" height="724" id="Layer_0_1_" xlink:href="F52CBD05952799A3.png"  transform="matrix(0.5 0 0 0.5 346.8186 -34.5641)">
	</image>
</g>
<path class="st1" d="M160.8,143c20.8-8.2,48.4-22.9,65.5-37.6c5.1-4.4,9.8-9.1,12.3-15.5c2.4-6.1,0.2-10.6-6-12.7
	c-2.3-0.8-4.7-1.3-7-1.9c9.2-1.2,18.5-1.8,27.5,0.8C264,79.3,267,87.3,261.2,97c-4.3,7.2-10.3,13.1-16.7,18.3
	c-19.8,16.2-42.1,28.3-65.3,38.9c-24.2,11-49.2,19.9-75.2,26.1c-13,3.1-26.2,5.3-39.6,5.6c-7.6,0.1-15.2-0.2-22.3-3.9
	c-6-3.1-8.2-8.3-5.8-14.7c3.3-8.7,9.8-15,16.6-21c3.1-2.8,6.3-5.5,10.3-7.3c-1.6,2.2-3.2,4.4-4.7,6.6c-1.5,2.1-2.6,4.4-2.9,7.1
	c-0.4,3.9,1.1,6.8,4.6,8.7c3.7,1.9,7.7,2.6,11.8,2.9c15.4,0.8,38.1-2.9,53.6-8.8C125.7,155.4,152.9,146.2,160.8,143z"/>
<g class="st2">
	<path class="st3" d="M17.6,218.1c1.5-6.2,3-12.4,4.5-18.6c0.6-2.3,1.2-4.7,1.7-7c0.4-1.9,1.4-2.7,3.3-2.6c0.6,0,1.2,0,1.7,0
		c3.5,0.2,3.8,0.5,2.9,3.9c-2.8,10.8-5.6,21.5-8.3,32.3c-0.3,1.3-0.9,2.5-1.7,3.6c-2.5,3.4-6.5,3.3-9-0.1c-0.8-1.1-1.3-2.3-1.5-3.6
		c-2-11-3.9-21.9-6-32.9c-0.4-2.1,0.4-2.9,2.4-3c0.6,0,1.2-0.1,1.7-0.1c4.4-0.1,4.6,0.2,5.1,4.7c0.8,7.8,1.8,15.7,2.7,23.5
		C17.2,218.1,17.4,218.1,17.6,218.1z"/>
	<path class="st3" d="M34,192.1c1.7,8.6,3.4,17.3,5.1,25.9c0.1,0,0.3,0,0.4,0c0.9-7.6,1.8-15.2,2.6-22.9c0.5-4.7,4-6.8,8.5-5
		c1.1,0.5,1,1.3,0.9,2.3c-0.6,3.5-1.2,7-1.8,10.5c-1.3,7.3-2.6,14.6-3.9,21.8c-0.3,2-0.9,3.9-2.3,5.4c-2.4,2.6-5.6,2.6-8-0.1
		c-1.1-1.3-1.7-2.8-2-4.5c-0.9-5.1-1.6-10.2-2.9-15.2c-1.2-4.7,0.5-8.9,1.4-13.2c0.3-1.7,0.9-3.4,1.3-5.2
		C33.5,192,33.7,192.1,34,192.1z"/>
	<path class="st3" d="M143.4,211.7c0-5.8,0-11.6,0-17.5c0-0.8-0.4-1.8,0.6-2.3c0.8-0.4,1.6,0.3,2.3,0.7c3.9,2.4,6.5,5.4,5.9,10.5
		c-0.5,3.7-0.1,3.7,3.6,3.7c3.4,0,6.8,0.1,10.2,0c2.5-0.1,3.3,0.9,3.1,3.2c-0.1,0.7,0,1.5-0.1,2.2c-0.2,1.6-0.9,2.3-2.6,2.3
		c-3.9-0.1-7.8,0.1-11.7,0c-1.9-0.1-2.7,0.6-2.6,2.6c0.1,4.1,0,8.2,0,12.2c0,1.9-0.6,2.7-2.6,2.7c-7-0.1-6,0.6-6-6
		C143.4,221.3,143.4,216.5,143.4,211.7z"/>
	<path class="st3" d="M57.2,210.5c0-5.3,0-10.6,0-16c0-3.1,0.5-3.4,3.3-1.7c3.8,2.3,6.3,5,5.7,10c-0.5,4.1-0.1,4.1,4,4.1
		c3.3,0,6.6,0,10,0c2.3,0,3.1,1.1,3,3.8c0,2.8-0.7,3.6-3.1,3.6c-3.8,0-7.6,0.1-11.5,0c-1.8,0-2.6,0.7-2.5,2.5c0.1,0.9-0.1,1.8,0,2.7
		c0.6,4.9-2.3,7.5-6.2,9.4c-2.1,1-2.7,0.7-2.7-1.7C57.2,221.8,57.2,216.2,57.2,210.5z"/>
	<path class="st3" d="M232,223c11.3,0.3,17.1-3.8,17.2-12c0.1-4.4-1.5-8.1-5-10.9c-2.1-1.6-2.5-1.7-12.2-2.1
		c1.6-2.4,3.9-3.7,5.9-5.3c3.8-2.9,7.1-2.2,10.6,0.4c6.8,5.3,9.4,12.4,8.4,20.7c-1,7.8-5.2,13.5-12.6,16.7c-1.4,0.6-2.7,0.5-4-0.2
		C237.1,228.3,234.1,226.3,232,223z"/>
	<path class="st3" d="M189.1,223.2c0.8-0.7,1.4-0.1,2,0c5.3,0.6,9.8-0.8,12.8-5.4c3.1-4.8,2.9-9.9-0.1-14.6
		c-2.9-4.5-7.2-6.2-12.5-5.2c-0.7,0.1-1.6,0.7-2-0.2c-0.4-0.8,0.5-1.3,1-1.8c2.4-2.2,5.2-3.9,8.1-5.3c1.2-0.6,2.3-0.1,3.3,0.4
		c8.6,4,12.4,12,12.1,20.4c-0.3,7.6-3.6,13.7-10.3,17.7c-2.9,1.7-5.4,2-8.2-0.1C193,227.4,190.5,225.9,189.1,223.2z"/>
	<path class="st3" d="M136,211.1c0,5.9-0.1,11.8,0,17.7c0,2.3-0.6,3.5-3.2,3.4c-7.1-0.2-6.2,1-6.3-6.2c0-9.6,0-19.3,0-28.9
		c0-4.8,1.7-6.5,6.5-7.1c2.1-0.2,3,0.4,3,2.7C136,198.8,136,204.9,136,211.1z"/>
	<path class="st3" d="M240.6,231.4c-5.9,2-14.3-1.5-18.9-7.4c-5.5-7.1-5.8-17.9-0.8-25.5c4.2-6.4,12.7-10.3,19.7-8.5
		c-9.1,4.2-14.1,11.1-14.1,20.9C226.6,220.6,231.5,227.4,240.6,231.4z"/>
	<path class="st3" d="M197.7,231.4c-7.1,1.7-15.3-1.9-19.8-8.2c-4.9-6.9-4.9-17.4-0.2-24.8c4.1-6.4,12.3-10.1,19.8-8.6
		c-9.2,4.2-14.2,11.2-14.2,20.7C183.3,220.3,188,227.4,197.7,231.4z"/>
	<path class="st3" d="M99.2,215.6c0,4.6-0.1,9.1,0,13.7c0,2-0.5,2.9-2.7,2.8c-7.2-0.2-6,0.8-6.2-6c-0.3-9.6,0.4-19.3-0.2-28.9
		c-0.1-1.7,0.7-2.5,2.5-1.9c4.8,1.7,7.1,3,6.6,8.1C99,207.5,99.2,211.5,99.2,215.6z"/>
	<path class="st3" d="M279.3,215.8c0,4.5,0,9,0,13.5c0,2.1-0.7,2.9-2.9,2.9c-6.5-0.2-5.6,0.6-5.7-5.5c0-8,0.1-16-0.1-24.1
		c0-2.6,0.8-3.3,3.3-3.2c5.3,0.2,5.4-0.8,5.3,5.2C279.3,208.3,279.3,212.1,279.3,215.8z"/>
	<path class="st3" d="M274.9,198.1c-4.4,0-8.8,0-13.2,0c-2.6,0-3.3-0.9-3.3-4c0-3.2,0.8-4.4,3.3-4.5c8.8-0.1,17.6-0.1,26.4,0
		c2.8,0,3.4,1,3.4,4.8c-0.1,3.2-0.6,3.7-3.6,3.7C283.6,198.2,279.2,198.1,274.9,198.1z"/>
	<path class="st3" d="M102,207.8c-0.6-2.3,0.4-3.1,3.2-2.8c3.1,0.3,5.2-1.6,5.3-4c0.1-2.3-2.1-4.4-4.9-4.7c-1.6-0.2-3.2-0.2-4.6,0.7
		c-1.3,0.8-2.2,0.7-3.4-0.3c-1.4-1.1-3-1.8-4.6-2.3c-0.8-0.3-1.2-0.6-0.4-1.4c5.2-5.6,19.1-4.2,23.3,2.5c2.6,4.2,1.7,8.4-0.7,12.2
		c-2.4,3.7-5.9,5.2-10.3,4.7C101.9,212,102,211.9,102,207.8z"/>
	<path class="st3" d="M108.4,213.5c2.3-0.9,4.6-1.8,6.4-3.6c0.8-0.7,1.5,0.2,2.1,0.8c2.5,2.6,3,5.8,2.8,9.3
		c-0.6,7.5-6.9,12.9-14.4,12.1c-2-0.2-3.1-1-2.9-3.1c0.1-0.9,0.1-1.8,0-2.7c-0.2-2.2,0.5-3,2.8-2.6c3.1,0.5,5.5-1,6.5-3.5
		c0.8-2.2,0-3.8-2.9-6C108.7,214.1,108.7,213.9,108.4,213.5z"/>
	<path class="st3" d="M70.4,189.6c3.2,0,6.5,0,9.7,0c2.3,0,3.2,1.2,3.1,4.1c0,2-0.5,3.5-3.1,3.5c-3.9-0.1-7.8,0-11.7,0
		c-0.9,0-1.8-0.2-2.5-1c-1.8-2-4-3.5-6.3-4.8c-0.5-0.3-1.3-0.5-1-1.2c0.2-0.6,1-0.5,1.6-0.5C63.6,189.5,67,189.6,70.4,189.6z"/>
	<path class="st3" d="M156.5,189.6c3.2,0,6.5,0.1,9.7,0c2,0,3,0.8,2.9,2.8c0,0.9,0,1.8-0.1,2.7c0,1.3-0.7,2-2,2c-4.2,0-8.5,0-12.7,0
		c-1,0-1.7-0.6-2.4-1.1c-1.9-1.6-3.7-3.3-5.9-4.6c-0.5-0.3-1.2-0.5-1-1.2c0.2-0.6,1-0.5,1.5-0.5
		C149.9,189.5,153.2,189.6,156.5,189.6z"/>
	<path class="st3" d="M58.7,231.4c3-1.4,5.5-3.5,7.7-5.9c0.5-0.6,1.4-0.5,2.1-0.5c3.9,0,7.8,0,11.7,0c2.3,0,3,1,3,3.8
		c0,1.9-0.3,3.4-2.9,3.4c-6.7-0.1-13.4,0-20.2,0C59.7,232.1,59.2,232.3,58.7,231.4z"/>
</g>
<g id="_x34_fgUnM.tif">
	
		<image style="overflow:visible;" width="222" height="146" id="Layer_0" xlink:href="F52CBD05952799A6.png"  transform="matrix(0.5 0 0 0.5 -111 134.3009)">
	</image>
</g>
</svg>
