<svg xmlns="http://www.w3.org/2000/svg" width="213.624" height="399.108" viewBox="0 0 213.624 399.108">
  <g id="Groupe_56" data-name="Groupe 56" transform="translate(-135.736 18.36)" opacity="0.103">
    <g id="Groupe_33" data-name="Groupe 33" transform="translate(152.783 0.569)">
      <path id="Tracé_290" data-name="Tracé 290" d="M582.841,699.554c2.391-3.02,5.545,2.987,8.7.767h-17.48C577.619,702.3,580.4,696.327,582.841,699.554Z" transform="translate(-457.184 -323.486)" fill="none"/>
      <path id="Tracé_291" data-name="Tracé 291" d="M659.552,700.852h-3.013c.648.455,1.3.907,1.915,1.4C658.807,701.774,659.184,701.316,659.552,700.852Z" transform="translate(-476.426 -324.017)" fill="none"/>
      <path id="Tracé_292" data-name="Tracé 292" d="M551.546,696.125a28.847,28.847,0,0,0-14.025,3.624h28.015A28.718,28.718,0,0,0,551.546,696.125Z" transform="translate(-448.66 -322.914)" fill="#e6e6e6"/>
      <path id="Tracé_293" data-name="Tracé 293" d="M619.753,691.4a39.633,39.633,0,0,0-22.894,7.249h45.757A39.624,39.624,0,0,0,619.753,691.4Z" transform="translate(-462.503 -321.811)" fill="#e6e6e6"/>
      <path id="Tracé_295" data-name="Tracé 295" d="M447.1,374.182s-29.545-9.2-25.009,5.938,29.421,7.493,29.421,7.493Z" transform="translate(-421.62 -247.16)" fill="#9d616a"/>
      <path id="Tracé_296" data-name="Tracé 296" d="M566.838,298.172s-15.141-20.691-29.852.789c-14.74,21.522-28.443,39.19-28.443,39.19l-36.607,11.936-21.178,1.879,5.834,18.829,61.577-8.933S586.724,321.139,566.838,298.172Z" transform="translate(-428.418 -227.981)" fill="#2f2e41"/>
      <path id="Tracé_297" data-name="Tracé 297" d="M507.458,450.352s-23,16.1-21.468,30.668,11.5,54.436,11.5,54.436l20.7-3.067s2.3-30.668-5.367-42.169l36.8-20.7Z" transform="translate(-436.621 -265.576)" fill="#9d616a"/>
      <path id="Tracé_298" data-name="Tracé 298" d="M580.421,499.852s-1.533,28.368,2.3,39.869,7.667,54.436,7.667,54.436h21.468s9.967-37.568-2.3-54.436c0,0-3.833-22.234,6.9-32.968Z" transform="translate(-458.597 -277.124)" fill="#9d616a"/>
      <path id="Tracé_299" data-name="Tracé 299" d="M558.849,395.485s-49.836,31.435-49.836,41.4l39.868,32.968,13.8-15.334-1.534,23,42.935,8.434s15.334-58.269,14.567-60.57-3.067-36.035-3.067-36.035Z" transform="translate(-442.009 -251.345)" fill="#2f2e41"/>
      <path id="Tracé_300" data-name="Tracé 300" d="M521.247,552.352l-22.234,4.6,3.951,16.241a58,58,0,0,1,.65,24.395h0s23,6.133,23,3.067-5.367-15.334-3.834-23.768S521.247,552.352,521.247,552.352Z" transform="translate(-439.676 -289.372)" fill="#6c63ff"/>
      <path id="Tracé_301" data-name="Tracé 301" d="M525.422,622.66c-.767-3.067-7.137-16.972-7.4-14.62s-12.532,6.186-17.133,1.586c0,0-6.134-5.367-8.434,0s-6.9,14.567-6.9,14.567-20.7,9.967-17.634,15.334c.62,1.085,2.339,1.543,4.685,1.584a1.253,1.253,0,0,0-.085.445v.544a1.262,1.262,0,0,0,1.262,1.262h.543a1.262,1.262,0,0,0,1.262-1.262v-.543a1.247,1.247,0,0,0-.138-.562c.627-.055,1.278-.128,1.946-.216a1.251,1.251,0,0,0-.275.778v.544a1.262,1.262,0,0,0,1.262,1.262h.543a1.262,1.262,0,0,0,1.262-1.262v-.543a1.256,1.256,0,0,0-.653-1.1c1.765-.295,3.607-.669,5.438-1.085a1.251,1.251,0,0,0-.185.65v.543a1.262,1.262,0,0,0,1.262,1.262h.543a1.262,1.262,0,0,0,1.262-1.262v-.543a1.26,1.26,0,0,0-.75-1.152c1.374-.335,2.72-.684,4-1.03a1.249,1.249,0,0,0-.184.648v.543a1.262,1.262,0,0,0,1.262,1.262h.543a1.262,1.262,0,0,0,1.262-1.262v-.543a1.257,1.257,0,0,0-.887-1.2c4.5-1.268,7.788-2.363,7.788-2.363s3.815-1.388,8.434-3.263v.468a1.262,1.262,0,0,0,1.262,1.262h.543a1.262,1.262,0,0,0,1.262-1.262v-.543a1.255,1.255,0,0,0-.488-.99c.927-.39,1.863-.791,2.788-1.2v.431a1.262,1.262,0,0,0,1.262,1.262h.543a1.262,1.262,0,0,0,1.262-1.262v-.543a1.259,1.259,0,0,0-.54-1.033c1-.467,1.964-.933,2.853-1.39,0,.041-.012.081-.012.122v.543a1.262,1.262,0,0,0,1.262,1.262h.543a1.262,1.262,0,0,0,1.262-1.262v-.543a1.262,1.262,0,0,0-1.01-1.236C524.255,624.507,525.607,623.4,525.422,622.66Z" transform="translate(-432.349 -302.177)" fill="#2f2e41"/>
      <path id="Tracé_302" data-name="Tracé 302" d="M615.114,617.885l-24.289-1.533s1.472,25.3-1.472,33.735-1.472,11.5-1.472,11.5l21.345,1.533Z" transform="translate(-460.322 -304.303)" fill="#6c63ff"/>
      <path id="Tracé_303" data-name="Tracé 303" d="M605.686,684.785c-.11-3.159-3.441-18.087-4.191-15.842s-13.547,3.437-17.087-2.022c0,0-4.88-6.528-8.248-1.759s-9.786,12.809-9.786,12.809-22.324,5.432-20.444,11.32c.38,1.191,1.966,2,4.252,2.526a1.248,1.248,0,0,0-.176.417l-.113.531a1.261,1.261,0,0,0,.971,1.5l.531.113a1.262,1.262,0,0,0,1.5-.971l.113-.532a1.248,1.248,0,0,0-.018-.579c.625.077,1.276.142,1.949.195a1.25,1.25,0,0,0-.431.7l-.113.531a1.262,1.262,0,0,0,.971,1.5l.531.113a1.262,1.262,0,0,0,1.5-.971l.113-.531a1.256,1.256,0,0,0-.409-1.21c1.787.08,3.667.1,5.545.073a1.25,1.25,0,0,0-.316.6l-.113.531a1.261,1.261,0,0,0,.971,1.5l.531.113a1.262,1.262,0,0,0,1.5-.971l.113-.531a1.261,1.261,0,0,0-.494-1.282c1.413-.041,2.8-.1,4.128-.173a1.249,1.249,0,0,0-.315.6l-.113.531a1.262,1.262,0,0,0,.971,1.5l.531.113a1.262,1.262,0,0,0,1.5-.971l.113-.532a1.257,1.257,0,0,0-.618-1.357c4.668-.3,8.109-.687,8.109-.687s4.02-.562,8.929-1.433l-.1.458a1.262,1.262,0,0,0,.971,1.5l.531.113a1.262,1.262,0,0,0,1.5-.971l.113-.531a1.254,1.254,0,0,0-.271-1.07c.988-.188,1.987-.385,2.977-.591l-.09.422a1.262,1.262,0,0,0,.971,1.5l.531.113a1.262,1.262,0,0,0,1.5-.971l.113-.531a1.258,1.258,0,0,0-.313-1.123c1.076-.248,2.115-.5,3.079-.764-.012.039-.029.076-.037.117l-.113.531a1.262,1.262,0,0,0,.971,1.5l.531.113a1.262,1.262,0,0,0,1.5-.971l.114-.531a1.262,1.262,0,0,0-.73-1.42C604.16,686.349,605.713,685.55,605.686,684.785Z" transform="translate(-450.595 -315.284)" fill="#2f2e41"/>
      <circle id="Ellipse_7" data-name="Ellipse 7" cx="22.234" cy="22.234" r="22.234" transform="translate(94.606 0)" fill="#9d616a"/>
      <path id="Tracé_304" data-name="Tracé 304" d="M595.193,235.352s12.267,15.334,18.4,14.567l-26.835,20.7s-3.067-13.034-6.9-14.567S595.193,235.352,595.193,235.352Z" transform="translate(-458.418 -215.417)" fill="#9d616a"/>
      <path id="Tracé_305" data-name="Tracé 305" d="M635.329,352.409s0-84.6-14.194-91.891-23.567-11.441-23.567-11.441h0a19.9,19.9,0,0,1-7.652,14.235c-4.7,3.631-9.389,6.642-12.006,6.651l-.084-.359-.319-.911-7.731,12.029s-6.9,1.533-9.2,6.134c-1.244,2.489,4.624,27.542,1.15,50.219-2.947,19.239-15.365,36.607-15.717,38.719-.595,3.569,14.5-5.782,21.3-10.154.1.112.172.187.172.187s-3.833,1.534,3.833-.767c4.344-1.3,10.41-1.375,14.853-1.194-.005,1.332.026,2.39.1,3.11.767,7.667,39.1,18.4,44.469,16.1S635.329,352.409,635.329,352.409Z" transform="translate(-450.635 -218.62)" fill="#011ea0"/>
      <path id="Tracé_306" data-name="Tracé 306" d="M623.576,421.852s-23,20.7-7.667,24.535,21.468-21.468,21.468-21.468Z" transform="translate(-465.717 -258.927)" fill="#9d616a"/>
      <path id="Tracé_307" data-name="Tracé 307" d="M592.513,489.969s10.734-9.967,16.867-4.6,9.967,9.2,9.967,9.2S601.713,483.835,592.513,489.969Z" transform="translate(-461.489 -273.375)" fill="#6c63ff"/>
      <path id="Tracé_308" data-name="Tracé 308" d="M596.149,646.339s6.05-5.618,9.507-2.593,5.618,5.186,5.618,5.186S601.335,642.882,596.149,646.339Z" transform="translate(-462.337 -310.485)" fill="#2f2e41"/>
      <path id="Tracé_309" data-name="Tracé 309" d="M507.746,577.552s4.153-7.135,8.341-5.247,6.884,3.326,6.884,3.326S511.7,572.735,507.746,577.552Z" transform="translate(-441.713 -293.953)" fill="#2f2e41"/>
      <path id="Tracé_310" data-name="Tracé 310" d="M646.626,275.275c-7.6-15.277-30.725-6.945-26.968,9.7q.084.372.176.752A151.309,151.309,0,0,0,639,330.2l-8.434,37.568-9.2,19.168,19.167,4.6,23.768-57.5S657.748,297.631,646.626,275.275Z" transform="translate(-467.726 -222.856)" fill="#2f2e41"/>
      <path id="Tracé_311" data-name="Tracé 311" d="M464.567,156.065,450,211.268,462.267,185.2Z" transform="translate(-296.741 -47.577)" opacity="0.2"/>
    </g>
    <g id="Groupe_39" data-name="Groupe 39" transform="translate(135.736 258.881)">
      <g id="Groupe_17" data-name="Groupe 17" transform="translate(0 0.014)">
        <path id="Tracé_242" data-name="Tracé 242" d="M114.36,535.83a30.21,30.21,0,1,0,6.271-18.435A30.208,30.208,0,0,0,114.36,535.83Z" transform="translate(-114.36 -505.61)" fill="#e0e0e0"/>
        <line id="Ligne_134" data-name="Ligne 134" y2="11.715" transform="translate(13.28 15.374)" fill="none" stroke="#535461" stroke-miterlimit="10" stroke-width="1"/>
        <line id="Ligne_135" data-name="Ligne 135" x1="12.234" y2="8.076" transform="translate(23.44 26.052)" fill="none" stroke="#535461" stroke-miterlimit="10" stroke-width="1"/>
        <line id="Ligne_136" data-name="Ligne 136" x2="14.317" y2="5.992" transform="translate(23.44 8.085)" fill="none" stroke="#535461" stroke-miterlimit="10" stroke-width="1"/>
        <line id="Ligne_137" data-name="Ligne 137" x1="0.778" y2="18.226" transform="translate(46.611 28.136)" fill="none" stroke="#535461" stroke-miterlimit="10" stroke-width="1"/>
        <line id="Ligne_138" data-name="Ligne 138" x1="16.142" y1="8.076" transform="translate(21.616 43.759)" fill="none" stroke="#535461" stroke-miterlimit="10" stroke-width="1"/>
        <line id="Ligne_139" data-name="Ligne 139" y2="10.18" transform="translate(13.28 45.065)" fill="none" stroke="#535461" stroke-miterlimit="10" stroke-width="1"/>
        <line id="Ligne_140" data-name="Ligne 140" x1="7.039" y1="3.121" transform="translate(0.249 34.128)" fill="none" stroke="#535461" stroke-miterlimit="10" stroke-width="1"/>
        <line id="Ligne_141" data-name="Ligne 141" x1="0.538" y1="8.515" transform="translate(46.073 4.516)" fill="none" stroke="#535461" stroke-miterlimit="10" stroke-width="1"/>
        <line id="Ligne_142" data-name="Ligne 142" x2="8.734" y2="2.493" transform="translate(51.297 22.931)" fill="none" stroke="#535461" stroke-miterlimit="10" stroke-width="1"/>
        <path id="Tracé_243" data-name="Tracé 243" d="M140.306,478.025l-6.77-11.725-11.2,1.825v13.021l11.984,6.251Z" transform="translate(-86.666 -455.093)" fill="#6c63ff"/>
        <path id="Tracé_244" data-name="Tracé 244" d="M120.65,517.4l6.979,3.589c2.343-3.121,11.964-6.77,11.964-6.77l-1-7.976A30.17,30.17,0,0,0,120.65,517.4Z" transform="translate(-114.379 -505.612)" fill="#6c63ff"/>
        <path id="Tracé_245" data-name="Tracé 245" d="M111.833,487.963,99.6,482.23l-6.77,9.641,7.029,11.2,11.974-1.825Z" transform="translate(-86.579 -455.141)" fill="#6c63ff"/>
        <path id="Tracé_246" data-name="Tracé 246" d="M150.14,555.98v9.661a30.2,30.2,0,0,0,19.472-12.652l-8.535-3.5Z" transform="translate(-114.466 -505.741)" fill="#6c63ff"/>
      </g>
      <ellipse id="Ellipse_5" data-name="Ellipse 5" cx="30.216" cy="30.216" rx="30.216" ry="30.216" transform="translate(0.002 0)" fill="rgba(1,30,160,0.36)"/>
    </g>
    <path id="Tracé_422" data-name="Tracé 422" d="M0,19.02a56.614,56.614,0,0,1,2-5.594c1-2.238,0-8.951,1-8.951H7.015L12.025,0l3.006,2.238L19.04,0l5.01,2.238L29.061,0l8.017,5.594,2-1.119,2,3.357h1L46.1,13.426h2V19.02h2V33.565L47.468,43.6l-.879-4.925a.313.313,0,0,0-.23-.3.324.324,0,0,0-.359.13L44.093,41.4l-1.224-4.555A30.418,30.418,0,0,0,31.163,19.809C23.747,14.576,13.028,12.083,2,26.852Z" transform="translate(235.512 0.41) rotate(-22)"/>
  </g>
</svg>
